<?xml version="1.0" encoding="UTF-8"?>
<svg id="_레이어_2" data-name="레이어 2" xmlns="http://www.w3.org/2000/svg" viewBox="0 43 108.44 36">
  <g id="Layer_1" data-name="Layer 1">
    <g>
      <path d="M12.94,60.25c0-2.09-.1-3.98-2.79-3.98s-3.98,1.54-5.08,3.88c-.45.9-.9,1.69-1.89,2.09-.55.2-1.49.55-2.14.55s-1-.3-1-.95c0-2.69,4.73-6.97,11.4-6.97,1.69,0,4.03.3,5.38,1.44,1,.85,1,1.64,1,3.93v11.15c0,1.39.1,3.63,1.64,3.63.6,0,1.1-.25,1.44-.6s.6-.65.85-.65.35.35.35.75c0,1.14-3.09,3.29-5.33,3.29-1.79,0-2.54-1.59-3.24-2.64-.25-.35-.45-.65-.65-.65-.25,0-1.29,1-2.64,1.84-1.44.9-3.29,1.69-5.33,1.69-2.69,0-4.93-1.64-4.93-4.23,0-3.48,3.98-5.38,7.22-6.97,1.29-.55,2.54-1.14,3.88-1.79,1.84-.85,1.84-.95,1.84-2.59v-2.24ZM4.93,72.44c0,1.79,1.34,2.79,3.04,2.79,1.59,0,2.99-.75,3.98-1.84s1-1.94,1-3.29v-2.94c0-.9,0-1.24-.2-1.24-.3,0-.65.2-1.14.45-1.1.55-2.29,1.19-3.43,1.79-1.64.95-3.24,2.14-3.24,4.23v.05Z"/>
      <path d="M28.13,63.33c0-2.94-.2-3.53-1.89-3.63-1.05-.1-1.39-.1-1.39-.6,0-.7.55-.75,1.59-1,1.34-.3,3.63-1.49,4.73-2.54.6-.55.8-.85,1.24-.85.6,0,.6.45.6,1v2.34c0,.7,0,.95.25.95s.85-.95,1.69-1.74c.95-.95,2.39-2.14,4.33-2.14,1.79,0,3.19,1.14,3.19,2.84,0,1.54-1.14,2.54-2.54,2.54-.95,0-1.49-.5-1.99-1.05s-1-1-1.64-1c-1.05,0-1.79.95-2.34,1.74-.95,1.44-.95,2.64-.95,4.53v7.62c0,2.44.05,3.78,2.54,3.83.7.05,1.79.05,1.79.8,0,.5-.45.65-1.1.65-1.39,0-3.43-.2-5.62-.2s-3.98.2-5.38.2c-.4,0-.85-.1-.85-.6,0-.8.8-.8,1.44-.85,2.29-.05,2.29-1.29,2.29-4.43v-8.41Z"/>
      <path d="M53.42,70.25c0,2.44.3,5.23,2.74,5.23.95,0,1.74-.4,2.29-.8.75-.45,1.1-.8,1.34-.8.35,0,.5.3.5.5,0,1-2.94,3.68-6.47,3.68-1.64,0-3.09-.55-3.98-1.54-1.24-1.39-1.29-2.74-1.29-5.92v-12.34c0-.9-.2-1-.75-1h-1.34c-.6,0-1.1-.1-1.1-.65s.35-.7.95-.95c2.29-1.24,4.18-2.39,5.57-5.43.25-.6.45-.9.95-.9.55,0,.6.4.6.75v4.13c0,.65.05,1.05.8,1.1,1.39,0,3.63-.1,5.08-.1.55,0,.55.35.55.95,0,1.1-.15,1.24-.85,1.24-1.14,0-2.59-.1-3.78-.1-1.54,0-1.79,0-1.79,1.29v11.65Z"/>
      <g>
        <path d="M67.6,63.09c0-2.94-.2-3.48-1.99-3.53-1.05-.05-1.39-.05-1.39-.6,0-.7.7-.75,1.44-.9,1.74-.35,4.03-1.64,5.33-2.69.45-.4.65-.65,1.05-.65.45,0,.5.3.5.85,0,.75-.05,1.49-.05,2.34v14.43c0,2.59.05,3.73,2.19,3.88.6.05,1.39.05,1.39.75,0,.5-.4.65-.7.65-1.54,0-3.43-.2-5.13-.2-2.54,0-4.03.2-5.52.2-.4,0-.85-.1-.85-.6,0-.8.8-.8,1.44-.85,2.29-.05,2.29-1.05,2.29-4.03v-9.06Z"/>
        <path d="M72.9,46.75c0-.15-.04-.34-.16-.54-.1-.19-.27-.35-.45-.44-.01,0-.02-.01-.03-.02-.04-.03-.1-.07-.18-.11-.33-.35-.7-.62-1.11-.8-.33-.15-.67-.23-1-.23-.71,0-1.37.35-1.91,1.01-.31.34-1.23,1.44-1.31,2.69-.11.25-.13.54-.06.81.07.23.21.42.4.56.08.11.17.23.3.36.55.53,1.29.82,2.08.82,1.08,0,2.12-.54,2.7-1.41.39-.55.64-1.24.68-1.9.12-.24.14-.54.04-.79Z"/>
      </g>
      <path d="M78.27,66.87c0-6.87,6.42-12,13.19-12,1.59,0,4.48.4,6.22,1.54.55.3.7.8.75,1.34.05.35,0,.85,0,1.19s.05.9,0,1.29c-.05.65-.25,1.39-.9,1.39-1.05,0-1.79-1.79-3.19-3.48-1.05-1.24-2.04-1.94-3.38-1.94-3.53,0-7.47,3.73-7.47,9.26s3.73,10.05,8.71,10.05c1.89,0,3.73-.6,5.08-1.84.2-.15.75-.7,1.05-.7.2,0,.5.15.5.6,0,.75-3.14,4.48-9.01,4.48-6.17,0-11.55-4.73-11.55-11.15v-.05Z"/>
      <path d="M102.72,75.13c0-1.64,1.19-2.84,2.89-2.84s2.84,1.14,2.84,2.89-1,2.89-2.89,2.89c-1.74,0-2.84-1.34-2.84-2.89v-.05Z"/>
    </g>
  </g>
</svg>