<?xml version="1.0" encoding="UTF-8"?>
<svg id="_레이어_2" data-name="레이어 2" xmlns="http://www.w3.org/2000/svg" viewBox="0 0 108.44 78.07">
  <g id="Layer_1" data-name="Layer 1">
    <g>
      <g>
        <path d="M72.89,2.17c0-.15-.04-.35-.17-.55-.1-.19-.28-.36-.46-.45-.01,0-.02-.02-.03-.02-.05-.03-.1-.07-.18-.11-.33-.35-.71-.63-1.13-.81-.34-.15-.68-.23-1.02-.23-.72,0-1.39.35-1.94,1.02-.32.34-1.25,1.46-1.33,2.74-.11.26-.14.55-.06.82.07.23.21.43.41.57.08.11.17.23.3.36.56.54,1.31.84,2.12.84,1.1,0,2.16-.55,2.75-1.43.4-.56.65-1.26.7-1.93.12-.25.14-.54.05-.81ZM72.23,2.78c0,.63-.25,1.31-.59,1.77-.84,1.27-2.79,1.6-3.93.51-.13-.13-.21-.25-.3-.38-.3-.13-.34-.51-.17-.76,0-.89.59-1.86,1.18-2.49.55-.68,1.31-1.06,2.24-.63.38.17.72.42,1.01.76.13.04.21.13.3.17.08.04.17.13.21.21.08.13.08.25.08.38.08.13.08.34-.04.46Z"/>
        <path d="M72.18,1.94c-.04-.08-.13-.17-.21-.21-.08-.04-.17-.13-.3-.17-.3-.34-.63-.59-1.01-.76-.93-.42-1.69-.04-2.24.63-.59.63-1.18,1.6-1.18,2.49-.17.25-.13.63.17.76.08.13.17.25.3.38,1.14,1.1,3.08.76,3.93-.51.34-.46.59-1.14.59-1.77.13-.13.13-.34.04-.46,0-.13,0-.25-.08-.38ZM70.54,2.83c-.04.13-.17.3-.25.38-.51.51-1.27.68-1.94.76,0-.04,0-.08-.04-.13.04-.04.08-.04.13-.08.51-.59,1.18-.97,1.94-1.1.21.08.21.04.17.17Z"/>
      </g>
      <path d="M71.11,29.43c-.04-.14-.08-.27-.11-.41,0-3.53-.05-6.97-.14-10.53,0-.07.01-.15.02-.23.01-.1.03-.2.03-.32,0-.14,0-.28-.01-.43,0-.27-.02-.53,0-.78v-.04c0-.41,0-.76.04-1.15.02-.14.06-.3.11-.47.05-.18.1-.36.12-.54v-.33c.15-.74-.02-1.51-.48-2.13-.39-.48-1.06-.9-1.79-1.12-.29-.14-.57-.24-.84-.33l-.05-.02h0s-.07-.03-.13-.04c-.13-.07-.27-.16-.41-.24-.48-.28-1.01-.6-1.57-.72-.87-.34-1.67-.87-2.45-1.39l-.13-.09c-1-.63-2.02-1.29-3.03-1.88-.81-.51-1.62-1.01-2.44-1.52-.81-.5-1.63-1.01-2.43-1.51-.18-.11-.35-.23-.52-.34-.15-.1-.31-.2-.47-.31-.2-.31-.46-.49-.72-.66-.11-.07-.22-.15-.33-.23l-.1-.08c-.4-.31-.81-.63-1.41-.68h-.03c-.31,0-.52.09-.73.17l-.05.02s-.06.01-.08.01c-.17.03-.35.06-.56.22-.42.26-.8.66-1.06.96-.26.21-.52.43-.78.6-.03.02-.07.05-.11.07-.11.07-.24.15-.36.26-.2.11-.4.23-.59.35-.2.12-.41.25-.61.36l-.96.55c-.66.36-1.36.71-2.03,1.05-.68.34-1.38.69-2.05,1.06-2.5,1.32-4.76,2.65-6.92,4.06-.04.03-.11.06-.18.09-.09.04-.19.08-.28.14h0s0,0-.01,0c-.03,0-.08.02-.12.04-1.26.21-2.65.94-2.81,2.37-.05.71.11,1.36.28,1.92,0,.09.01.17.02.25.01.1.02.19.02.29v.14c0,.56.05,1.12.09,1.67,0,2.32,0,4.73.09,7.06v.76c-.04.95-.09,1.94-.09,2.91v.36c-.01.2-.04.42-.07.65-.06.54-.14,1.15-.07,1.73v.37c.05.91.68,1.61,1.6,1.78.46.1.88,0,1.28-.33.51-.32.86-.93.92-1.61.05-.3.05-.55,0-.85,0-.14-.01-.29-.02-.43-.01-.15-.02-.29-.02-.41v-2.71c0-.92-.01-1.85-.02-2.75-.01-.92-.02-1.86-.02-2.81v-.03c.18-1.97.18-3.96.18-5.88.03-.08.05-.11.08-.14.07-.07.27-.15.42-.2l.07-.03s.08-.02.11-.03c0,0,.01,0,.02,0,.06,0,.12-.03.16-.04h.49c7.48.13,15.34.18,24.72.18h4.17c.32.2.56.38.75.57.09.44.23.88.36,1.31.03.1.07.19.11.29.07.17.13.33.16.48v.03c.28,1.03.42,1.82.46,2.55.04.71,0,1.45-.05,2.16v.16c0,.74.03,1.47.07,2.18.05,1.15.11,2.23.03,3.33-.08.36-.17.72-.25,1.07-.17.68-.34,1.38-.43,2.06v.05c0,.09,0,.17.02.25.01.07.02.14.02.21v.05c.11.7.64,1.28,1.4,1.52.17.04.34.06.52.06.53,0,1.08-.18,1.44-.5l.09-.09c1.21-.91.82-2.31.5-3.43ZM64.07,12.34c-4.52-.14-9.38-.2-14.72-.2-1.5,0-3.04,0-4.61.02-2.01,0-4.05.04-6.04.08.02-.02.05-.04.07-.06.56-.28,1.11-.65,1.64-1.01.46-.28.93-.56,1.4-.85.47-.29.94-.57,1.39-.85.72-.4,1.46-.82,2.22-1.18.61-.27,1.2-.58,1.78-.89.43-.23.87-.46,1.32-.68.37-.18.75-.37,1.09-.62.06-.04.12-.08.18-.11.14-.09.27-.17.4-.22l1.23-.61c.51.31,1.1.57,1.74.75.28.14.59.27.85.36.08.05.17.09.24.12.07.03.13.06.18.09h.02c1.62.95,3.24,1.96,4.81,2.93,1.57.97,3.18,1.98,4.81,2.93Z"/>
    </g>
    <g>
      <path d="M12.94,60.25c0-2.09-.1-3.98-2.79-3.98s-3.98,1.54-5.08,3.88c-.45.9-.9,1.69-1.89,2.09-.55.2-1.49.55-2.14.55s-1-.3-1-.95c0-2.69,4.73-6.97,11.4-6.97,1.69,0,4.03.3,5.38,1.44,1,.85,1,1.64,1,3.93v11.15c0,1.39.1,3.63,1.64,3.63.6,0,1.1-.25,1.44-.6s.6-.65.85-.65.35.35.35.75c0,1.14-3.09,3.29-5.33,3.29-1.79,0-2.54-1.59-3.24-2.64-.25-.35-.45-.65-.65-.65-.25,0-1.29,1-2.64,1.84-1.44.9-3.29,1.69-5.33,1.69-2.69,0-4.93-1.64-4.93-4.23,0-3.48,3.98-5.38,7.22-6.97,1.29-.55,2.54-1.14,3.88-1.79,1.84-.85,1.84-.95,1.84-2.59v-2.24ZM4.93,72.44c0,1.79,1.34,2.79,3.04,2.79,1.59,0,2.99-.75,3.98-1.84s1-1.94,1-3.29v-2.94c0-.9,0-1.24-.2-1.24-.3,0-.65.2-1.14.45-1.1.55-2.29,1.19-3.43,1.79-1.64.95-3.24,2.14-3.24,4.23v.05Z"/>
      <path d="M28.13,63.33c0-2.94-.2-3.53-1.89-3.63-1.05-.1-1.39-.1-1.39-.6,0-.7.55-.75,1.59-1,1.34-.3,3.63-1.49,4.73-2.54.6-.55.8-.85,1.24-.85.6,0,.6.45.6,1v2.34c0,.7,0,.95.25.95s.85-.95,1.69-1.74c.95-.95,2.39-2.14,4.33-2.14,1.79,0,3.19,1.14,3.19,2.84,0,1.54-1.14,2.54-2.54,2.54-.95,0-1.49-.5-1.99-1.05s-1-1-1.64-1c-1.05,0-1.79.95-2.34,1.74-.95,1.44-.95,2.64-.95,4.53v7.62c0,2.44.05,3.78,2.54,3.83.7.05,1.79.05,1.79.8,0,.5-.45.65-1.1.65-1.39,0-3.43-.2-5.62-.2s-3.98.2-5.38.2c-.4,0-.85-.1-.85-.6,0-.8.8-.8,1.44-.85,2.29-.05,2.29-1.29,2.29-4.43v-8.41Z"/>
      <path d="M53.42,70.25c0,2.44.3,5.23,2.74,5.23.95,0,1.74-.4,2.29-.8.75-.45,1.1-.8,1.34-.8.35,0,.5.3.5.5,0,1-2.94,3.68-6.47,3.68-1.64,0-3.09-.55-3.98-1.54-1.24-1.39-1.29-2.74-1.29-5.92v-12.34c0-.9-.2-1-.75-1h-1.34c-.6,0-1.1-.1-1.1-.65s.35-.7.95-.95c2.29-1.24,4.18-2.39,5.57-5.43.25-.6.45-.9.95-.9.55,0,.6.4.6.75v4.13c0,.65.05,1.05.8,1.1,1.39,0,3.63-.1,5.08-.1.55,0,.55.35.55.95,0,1.1-.15,1.24-.85,1.24-1.14,0-2.59-.1-3.78-.1-1.54,0-1.79,0-1.79,1.29v11.65Z"/>
      <g>
        <path d="M67.6,63.09c0-2.94-.2-3.48-1.99-3.53-1.05-.05-1.39-.05-1.39-.6,0-.7.7-.75,1.44-.9,1.74-.35,4.03-1.64,5.33-2.69.45-.4.65-.65,1.05-.65.45,0,.5.3.5.85,0,.75-.05,1.49-.05,2.34v14.43c0,2.59.05,3.73,2.19,3.88.6.05,1.39.05,1.39.75,0,.5-.4.65-.7.65-1.54,0-3.43-.2-5.13-.2-2.54,0-4.03.2-5.52.2-.4,0-.85-.1-.85-.6,0-.8.8-.8,1.44-.85,2.29-.05,2.29-1.05,2.29-4.03v-9.06Z"/>
        <path d="M72.9,46.75c0-.15-.04-.34-.16-.54-.1-.19-.27-.35-.45-.44-.01,0-.02-.01-.03-.02-.04-.03-.1-.07-.18-.11-.33-.35-.7-.62-1.11-.8-.33-.15-.67-.23-1-.23-.71,0-1.37.35-1.91,1.01-.31.34-1.23,1.44-1.31,2.69-.11.25-.13.54-.06.81.07.23.21.42.4.56.08.11.17.23.3.36.55.53,1.29.82,2.08.82,1.08,0,2.12-.54,2.7-1.41.39-.55.64-1.24.68-1.9.12-.24.14-.54.04-.79Z"/>
      </g>
      <path d="M78.27,66.87c0-6.87,6.42-12,13.19-12,1.59,0,4.48.4,6.22,1.54.55.3.7.8.75,1.34.05.35,0,.85,0,1.19s.05.9,0,1.29c-.05.65-.25,1.39-.9,1.39-1.05,0-1.79-1.79-3.19-3.48-1.05-1.24-2.04-1.94-3.38-1.94-3.53,0-7.47,3.73-7.47,9.26s3.73,10.05,8.71,10.05c1.89,0,3.73-.6,5.08-1.84.2-.15.75-.7,1.05-.7.2,0,.5.15.5.6,0,.75-3.14,4.48-9.01,4.48-6.17,0-11.55-4.73-11.55-11.15v-.05Z"/>
      <path d="M102.72,75.13c0-1.64,1.19-2.84,2.89-2.84s2.84,1.14,2.84,2.89-1,2.89-2.89,2.89c-1.74,0-2.84-1.34-2.84-2.89v-.05Z"/>
    </g>
  </g>
</svg>